<?xml version="1.0" standalone="no"?>
<!DOCTYPE svg PUBLIC "-//W3C//DTD SVG 20010904//EN"
 "http://www.w3.org/TR/2001/REC-SVG-20010904/DTD/svg10.dtd">
<svg version="1.0" xmlns="http://www.w3.org/2000/svg"
 width="1024.000000pt" height="1024.000000pt" viewBox="0 0 1024.000000 1024.000000"
 preserveAspectRatio="xMidYMid meet">

<g transform="translate(0.000000,1024.000000) scale(0.100000,-0.100000)"
fill="#000000" stroke="none">
<path d="M0 5120 l0 -5120 5120 0 5120 0 0 5120 0 5120 -5120 0 -5120 0 0
-5120z m8338 -2 l-3 -2953 -3212 -3 -3213 -2 0 2955 0 2955 3215 0 3215 0 -2
-2952z"/>
<path d="M2699 7970 l-696 -5 1 -2850 1 -2850 3118 -3 3117 -2 0 2857 0 2858
-2423 0 c-1332 0 -2735 -2 -3118 -5z m2144 -1996 c40 -8 119 -38 177 -66 94
-45 115 -61 204 -150 58 -58 95 -103 90 -108 -5 -5 -27 -10 -49 -13 -33 -3
-29 -4 17 -5 l58 -2 30 -60 c52 -103 73 -200 74 -335 0 -95 -5 -137 -23 -200
-12 -43 -27 -85 -33 -92 -6 -8 -33 -13 -68 -13 -44 0 -61 -4 -75 -20 -18 -20
-17 -20 43 -20 34 0 62 -3 62 -8 0 -4 -12 -25 -27 -47 -77 -117 -180 -208
-303 -270 -203 -102 -446 -113 -657 -28 -134 53 -282 176 -370 306 -24 35 -39
47 -58 47 -14 0 -25 2 -25 4 0 2 -3 11 -6 20 -5 12 0 16 19 16 l25 0 -23 58
c-68 168 -56 387 30 570 30 64 37 72 62 72 15 0 35 5 43 10 12 8 9 10 -12 10
-16 0 -28 4 -28 9 0 21 101 130 162 176 97 73 205 122 319 144 76 15 264 12
342 -5z m-2200 -22 c9 -1 17 -7 17 -12 0 -8 143 -371 177 -447 4 -10 -14 -13
-71 -13 -74 0 -76 -1 -66 -20 9 -17 21 -20 79 -20 l68 0 72 -177 c40 -98 91
-224 114 -280 23 -58 44 -98 48 -91 4 6 2 21 -3 34 -6 13 -7 31 -3 41 7 15 9
12 14 -14 5 -29 19 0 111 229 58 144 107 266 108 270 2 5 -8 8 -22 8 -14 0
-26 3 -26 8 0 4 13 41 29 82 25 65 32 76 56 80 26 5 33 17 89 165 l61 160 153
3 c118 2 152 0 152 -10 0 -7 -27 -82 -61 -165 l-61 -153 -59 0 -60 0 -34 -76
c-19 -42 -35 -78 -35 -80 0 -2 27 -4 60 -4 36 0 60 -4 60 -11 0 -13 -67 -182
-244 -614 l-135 -330 -149 -3 c-112 -2 -152 1 -159 10 -6 7 -77 175 -158 373
-223 547 -215 530 -249 530 -22 0 -33 8 -47 32 l-18 33 24 6 c13 3 29 2 36 -2
8 -5 10 -3 7 7 -68 162 -177 443 -174 448 4 5 246 7 299 3z m3340 1 c5 -9 12
-1016 9 -1278 l-2 -161 -144 0 -143 0 -7 146 c-8 175 -7 1286 1 1294 9 9 281
7 286 -1z m1112 -22 c156 -42 282 -121 378 -235 l50 -61 -47 -3 c-61 -4 -49
-22 15 -22 44 0 51 -3 68 -31 87 -143 105 -440 37 -602 -15 -36 -16 -37 -69
-37 -41 0 -58 -5 -72 -20 -18 -20 -17 -20 33 -20 59 0 63 -7 31 -60 -64 -104
-163 -189 -294 -251 -133 -62 -188 -69 -565 -69 l-330 0 0 525 0 525 -26 0
c-23 0 -25 3 -22 33 2 24 8 32 23 32 19 0 20 5 16 152 -2 83 0 157 4 163 6 9
94 11 349 8 311 -4 348 -7 421 -27z m826 -1134 c80 -42 111 -139 71 -217 -26
-49 -112 -94 -167 -85 -111 17 -174 127 -131 228 15 36 37 58 81 81 43 22 95
20 146 -7z"/>
<path d="M4545 5716 c-66 -17 -156 -56 -150 -66 3 -4 -6 -11 -20 -14 -28 -7
-115 -107 -145 -166 -81 -159 -60 -416 43 -527 l20 -23 -51 0 c-29 0 -52 -4
-52 -10 0 -5 25 -10 56 -10 51 0 60 -4 101 -40 100 -88 249 -131 386 -111 90
12 183 53 242 105 36 32 38 35 18 36 -13 0 -23 3 -23 8 1 19 40 51 66 54 25 3
34 13 61 68 67 137 67 297 -1 435 -42 85 -114 157 -173 174 -43 12 -58 31 -25
31 30 1 -54 39 -120 55 -75 18 -164 18 -233 1z"/>
<path d="M6625 5462 c0 -130 1 -339 3 -464 l2 -228 143 0 c170 0 252 12 323
47 61 30 109 73 81 73 -9 0 -17 4 -17 8 0 17 47 52 68 52 14 0 29 12 42 33
105 170 84 429 -46 564 -35 37 -46 43 -68 37 -17 -4 -35 0 -51 10 -29 19 -32
33 -7 38 24 5 -75 46 -139 58 -29 6 -115 10 -193 10 l-141 0 0 -238z"/>
</g>
</svg>
